<svg width="20" height="19" viewBox="0 0 20 19" fill="none" xmlns="http://www.w3.org/2000/svg">
<path d="M11.6577 13.4565C11.4633 13.4568 11.2749 13.3924 11.1253 13.2745L6.13401 9.31817C5.96413 9.18387 5.8573 8.99087 5.83702 8.78164C5.81674 8.57241 5.88467 8.36409 6.02587 8.2025C6.16707 8.04091 6.36998 7.9393 6.58995 7.92C6.80992 7.90071 7.02893 7.96533 7.19882 8.09964L11.6577 11.6445L16.1165 8.22624C16.2016 8.16051 16.2995 8.11143 16.4046 8.08181C16.5097 8.05219 16.62 8.04262 16.729 8.05365C16.838 8.06468 16.9436 8.09609 17.0398 8.14608C17.136 8.19607 17.2208 8.26364 17.2895 8.34493C17.3657 8.42628 17.4234 8.52173 17.459 8.62529C17.4946 8.72884 17.5073 8.83827 17.4964 8.94672C17.4854 9.05518 17.4511 9.16031 17.3954 9.25555C17.3398 9.35078 17.2641 9.43406 17.173 9.50016L12.1818 13.3219C12.0278 13.4213 11.8433 13.4686 11.6577 13.4565V13.4565Z" fill="black"/>
</svg>
