<svg width="26" height="26" viewBox="0 0 26 26" fill="none" xmlns="http://www.w3.org/2000/svg">
<path d="M8.62024 2.54517H17.3673C20.6996 2.54517 23.407 5.25977 23.407 8.60081V17.3711C23.407 18.9771 22.7707 20.5174 21.638 21.6531C20.5054 22.7887 18.9692 23.4267 17.3673 23.4267H8.62024C5.288 23.4267 2.58057 20.7121 2.58057 17.3711V8.60081C2.58057 6.99476 3.21689 5.45448 4.34954 4.31882C5.4822 3.18317 7.01842 2.54517 8.62024 2.54517ZM8.41197 4.63332C7.41774 4.63332 6.46423 5.02932 5.7612 5.73421C5.05817 6.4391 4.66321 7.39513 4.66321 8.392V17.5799C4.66321 19.6576 6.33974 21.3386 8.41197 21.3386H17.5756C18.5698 21.3386 19.5234 20.9426 20.2264 20.2377C20.9294 19.5328 21.3244 18.5767 21.3244 17.5799V8.392C21.3244 6.31428 19.6478 4.63332 17.5756 4.63332H8.41197ZM18.4607 6.19944C18.806 6.19944 19.137 6.33694 19.3811 6.58169C19.6252 6.82644 19.7624 7.1584 19.7624 7.50453C19.7624 7.85067 19.6252 8.18262 19.3811 8.42737C19.137 8.67213 18.806 8.80963 18.4607 8.80963C18.1155 8.80963 17.7844 8.67213 17.5403 8.42737C17.2962 8.18262 17.1591 7.85067 17.1591 7.50453C17.1591 7.1584 17.2962 6.82644 17.5403 6.58169C17.7844 6.33694 18.1155 6.19944 18.4607 6.19944ZM12.9938 7.76555C14.3747 7.76555 15.699 8.31556 16.6754 9.29457C17.6518 10.2736 18.2004 11.6014 18.2004 12.9859C18.2004 14.3705 17.6518 15.6983 16.6754 16.6773C15.699 17.6563 14.3747 18.2063 12.9938 18.2063C11.6129 18.2063 10.2886 17.6563 9.31216 16.6773C8.33573 15.6983 7.78718 14.3705 7.78718 12.9859C7.78718 11.6014 8.33573 10.2736 9.31216 9.29457C10.2886 8.31556 11.6129 7.76555 12.9938 7.76555ZM12.9938 9.85371C12.1653 9.85371 11.3707 10.1837 10.7848 10.7711C10.199 11.3585 9.86982 12.1552 9.86982 12.9859C9.86982 13.8167 10.199 14.6134 10.7848 15.2008C11.3707 15.7882 12.1653 16.1182 12.9938 16.1182C13.8223 16.1182 14.6169 15.7882 15.2028 15.2008C15.7886 14.6134 16.1178 13.8167 16.1178 12.9859C16.1178 12.1552 15.7886 11.3585 15.2028 10.7711C14.6169 10.1837 13.8223 9.85371 12.9938 9.85371Z" fill="black"/>
</svg>
