<svg width="19" height="26" viewBox="0 0 19 26" fill="none" xmlns="http://www.w3.org/2000/svg">
<path d="M8.53652 25.3914C1.44189 15.1063 0.125 14.0507 0.125 10.2708C0.125 5.09307 4.32231 0.895752 9.5 0.895752C14.6777 0.895752 18.875 5.09307 18.875 10.2708C18.875 14.0507 17.5581 15.1063 10.4635 25.3914C9.9979 26.0639 9.00205 26.0639 8.53652 25.3914ZM9.5 14.177C11.6574 14.177 13.4062 12.4281 13.4062 10.2708C13.4062 8.11338 11.6574 6.3645 9.5 6.3645C7.34263 6.3645 5.59375 8.11338 5.59375 10.2708C5.59375 12.4281 7.34263 14.177 9.5 14.177Z" fill="black"/>
</svg>
