<svg width="42" height="42" viewBox="0 0 42 42" fill="none" xmlns="http://www.w3.org/2000/svg">
<path d="M27.825 22.785L19.005 31.605C18.7704 31.8388 18.492 32.0241 18.1857 32.1502C17.8794 32.2763 17.5512 32.3408 17.22 32.34C16.5519 32.3371 15.9114 32.0734 15.435 31.605C15.2001 31.3709 15.0137 31.0927 14.8865 30.7864C14.7593 30.4801 14.6938 30.1517 14.6938 29.82C14.6938 29.4883 14.7593 29.1599 14.8865 28.8536C15.0137 28.5473 15.2001 28.2691 15.435 28.035L19.95 23.52H2.52C1.85165 23.52 1.21068 23.2545 0.738091 22.7819C0.265499 22.3093 0 21.6683 0 21C0 20.3317 0.265499 19.6907 0.738091 19.2181C1.21068 18.7455 1.85165 18.48 2.52 18.48H19.95L15.435 13.965C14.9616 13.4916 14.6956 12.8495 14.6956 12.18C14.6956 11.5105 14.9616 10.8684 15.435 10.395C15.9084 9.92159 16.5505 9.65563 17.22 9.65563C17.8895 9.65563 18.5316 9.92159 19.005 10.395L27.825 19.215C28.0599 19.4491 28.2463 19.7273 28.3735 20.0336C28.5007 20.3399 28.5662 20.6683 28.5662 21C28.5662 21.3317 28.5007 21.6601 28.3735 21.9664C28.2463 22.2727 28.0599 22.5509 27.825 22.785ZM37.8 0H26.04C25.3717 0 24.7307 0.265499 24.2581 0.738091C23.7855 1.21068 23.52 1.85165 23.52 2.52C23.52 3.18835 23.7855 3.82932 24.2581 4.30191C24.7307 4.7745 25.3717 5.04 26.04 5.04H36.96V36.96H26.04C25.3717 36.96 24.7307 37.2255 24.2581 37.6981C23.7855 38.1707 23.52 38.8117 23.52 39.48C23.52 40.1483 23.7855 40.7893 24.2581 41.2619C24.7307 41.7345 25.3717 42 26.04 42H37.8C38.9122 41.9945 39.9773 41.5502 40.7637 40.7637C41.5502 39.9773 41.9945 38.9122 42 37.8V4.2C41.9945 3.08779 41.5502 2.02271 40.7637 1.23625C39.9773 0.449791 38.9122 0.00551974 37.8 0Z" fill="black"/>
</svg>
