<svg width="50" height="50" viewBox="0 0 50 50" fill="none" xmlns="http://www.w3.org/2000/svg">
<circle cx="25" cy="25" r="25" fill="#D9D9D9"/>
<path d="M33.4375 13.1699C37.1289 15.8066 39.5313 20.1191 39.5313 25C39.5313 33.0156 33.0391 39.5137 25.0293 39.5312C17.0313 39.5488 10.4805 33.0273 10.4688 25.0234C10.4629 20.1426 12.8652 15.8184 16.5508 13.1758C17.2363 12.6895 18.1914 12.8945 18.6016 13.627L19.5274 15.2734C19.8731 15.8887 19.709 16.668 19.1406 17.0898C16.709 18.8945 15.1563 21.7539 15.1563 24.9941C15.1504 30.4023 19.5215 34.8438 25 34.8438C30.3672 34.8438 34.8789 30.4961 34.8438 24.9355C34.8262 21.9004 33.3965 18.9707 30.8535 17.084C30.2852 16.6621 30.127 15.8828 30.4727 15.2734L31.3984 13.627C31.8086 12.9004 32.7578 12.6836 33.4375 13.1699ZM27.3438 25.4688V11.4062C27.3438 10.627 26.7168 10 25.9375 10H24.0625C23.2832 10 22.6563 10.627 22.6563 11.4062V25.4688C22.6563 26.248 23.2832 26.875 24.0625 26.875H25.9375C26.7168 26.875 27.3438 26.248 27.3438 25.4688Z" fill="black"/>
</svg>
