<svg width="26" height="30" viewBox="0 0 26 30" fill="none" xmlns="http://www.w3.org/2000/svg">
<path opacity="0.9" d="M25.4359 20.9788C24.3491 19.811 22.3157 18.0543 22.3157 12.3C22.3157 7.92936 19.2512 4.43062 15.1191 3.57225V2.4C15.1191 1.40607 14.3136 0.600006 13.3202 0.600006C12.3268 0.600006 11.5213 1.40607 11.5213 2.4V3.57225C7.38923 4.43062 4.32474 7.92936 4.32474 12.3C4.32474 18.0543 2.29131 19.811 1.20456 20.9788C0.867066 21.3416 0.717441 21.7753 0.720254 22.1999C0.726441 23.1224 1.45038 23.9999 2.52587 23.9999H24.1146C25.1901 23.9999 25.9146 23.1224 25.9202 22.1999C25.923 21.7753 25.7734 21.341 25.4359 20.9788ZM4.5188 21.2999C5.71243 19.7266 7.01742 17.1189 7.02361 12.3326C7.02361 12.3213 7.02024 12.3112 7.02024 12.3C7.02024 8.82036 9.8406 5.99999 13.3202 5.99999C16.7998 5.99999 19.6202 8.82036 19.6202 12.3C19.6202 12.3112 19.6168 12.3213 19.6168 12.3326C19.623 17.1195 20.928 19.7272 22.1216 21.2999H4.5188ZM13.3202 29.3999C15.307 29.3999 16.9185 27.7884 16.9185 25.7999H9.72191C9.72191 27.7884 11.3335 29.3999 13.3202 29.3999Z" fill="black"/>
</svg>
