<svg width="26" height="25" viewBox="0 0 26 25" fill="none" xmlns="http://www.w3.org/2000/svg">
<g clip-path="url(#clip0_963_6578)">
<path d="M24.6421 17.6661L19.1733 15.3223C18.9397 15.2227 18.6801 15.2018 18.4335 15.2625C18.1869 15.3233 17.9668 15.4625 17.8062 15.6592L15.3843 18.6182C11.5834 16.8261 8.52451 13.7673 6.73242 9.96635L9.69141 7.54448C9.88851 7.38417 10.028 7.164 10.0888 6.91731C10.1496 6.67062 10.1284 6.41083 10.0283 6.17729L7.68457 0.708542C7.57476 0.456788 7.38055 0.25124 7.13543 0.12734C6.8903 0.00344002 6.60962 -0.0310452 6.3418 0.0298307L1.26367 1.20171C1.00545 1.26133 0.775071 1.40672 0.610125 1.61415C0.445178 1.82157 0.355409 2.07878 0.355469 2.3438C0.355469 14.8682 10.5068 25 23.0117 25C23.2768 25.0002 23.5341 24.9105 23.7417 24.7455C23.9492 24.5806 24.0947 24.3501 24.1543 24.0918L25.3262 19.0137C25.3867 18.7446 25.3514 18.4628 25.2266 18.2168C25.1017 17.9708 24.895 17.7761 24.6421 17.6661Z" fill="black"/>
</g>
<defs>
<clipPath id="clip0_963_6578">
<rect width="25" height="25" fill="white" transform="translate(0.355469)"/>
</clipPath>
</defs>
</svg>
