<svg width="18" height="20" viewBox="0 0 18 20" fill="none" xmlns="http://www.w3.org/2000/svg">
<path d="M3.62118 0.413404C3.33412 0.678187 3.17285 1.03726 3.17285 1.41166C3.17285 1.78607 3.33412 2.14514 3.62118 2.40992L11.2009 9.39915L3.62118 16.3884C3.34225 16.6547 3.18791 17.0113 3.1914 17.3815C3.19489 17.7518 3.35593 18.1059 3.63983 18.3677C3.92374 18.6295 4.3078 18.778 4.70929 18.7812C5.11078 18.7844 5.49757 18.6421 5.78637 18.3849L14.4487 10.3974C14.7357 10.1326 14.897 9.77355 14.897 9.39915C14.897 9.02474 14.7357 8.66567 14.4487 8.40089L5.78637 0.413404C5.49922 0.148702 5.10981 0 4.70378 0C4.29774 0 3.90833 0.148702 3.62118 0.413404Z" fill="black"/>
</svg>
