<svg width="28" height="28" viewBox="0 0 28 28" fill="none" xmlns="http://www.w3.org/2000/svg">
<path d="M5.25 16.625C4.55381 16.625 3.88613 16.3484 3.39384 15.8562C2.90156 15.3639 2.625 14.6962 2.625 14C2.625 13.3038 2.90156 12.6361 3.39384 12.1438C3.88613 11.6516 4.55381 11.375 5.25 11.375C5.94619 11.375 6.61387 11.6516 7.10616 12.1438C7.59844 12.6361 7.875 13.3038 7.875 14C7.875 14.6962 7.59844 15.3639 7.10616 15.8562C6.61387 16.3484 5.94619 16.625 5.25 16.625ZM14 16.625C13.3038 16.625 12.6361 16.3484 12.1438 15.8562C11.6516 15.3639 11.375 14.6962 11.375 14C11.375 13.3038 11.6516 12.6361 12.1438 12.1438C12.6361 11.6516 13.3038 11.375 14 11.375C14.6962 11.375 15.3639 11.6516 15.8562 12.1438C16.3484 12.6361 16.625 13.3038 16.625 14C16.625 14.6962 16.3484 15.3639 15.8562 15.8562C15.3639 16.3484 14.6962 16.625 14 16.625ZM22.75 16.625C22.0538 16.625 21.3861 16.3484 20.8938 15.8562C20.4016 15.3639 20.125 14.6962 20.125 14C20.125 13.3038 20.4016 12.6361 20.8938 12.1438C21.3861 11.6516 22.0538 11.375 22.75 11.375C23.4462 11.375 24.1139 11.6516 24.6062 12.1438C25.0984 12.6361 25.375 13.3038 25.375 14C25.375 14.6962 25.0984 15.3639 24.6062 15.8562C24.1139 16.3484 23.4462 16.625 22.75 16.625Z" fill="black"/>
</svg>
