<svg width="50" height="50" viewBox="0 0 50 50" fill="none" xmlns="http://www.w3.org/2000/svg">
<circle cx="25" cy="25" r="25" fill="#D9D9D9"/>
<path d="M39.5702 22.72L36.2202 21.72C35.9886 20.9113 35.6701 20.1301 35.2702 19.39L36.9102 16.32C36.9718 16.2041 36.9943 16.0715 36.9745 15.9418C36.9547 15.8121 36.8935 15.6922 36.8002 15.6L34.4102 13.2C34.318 13.1067 34.1981 13.0456 34.0684 13.0257C33.9387 13.0059 33.8061 13.0285 33.6902 13.09L30.6402 14.72C29.8928 14.3007 29.1014 13.9653 28.2802 13.72L27.2802 10.41C27.2379 10.288 27.158 10.1826 27.052 10.1089C26.946 10.0352 26.8193 9.99711 26.6902 10H23.3102C23.1804 10.0006 23.0541 10.0426 22.9498 10.12C22.8454 10.1973 22.7685 10.3059 22.7302 10.43L21.7302 13.73C20.9022 13.974 20.104 14.3094 19.3502 14.73L16.3502 13.11C16.2343 13.0485 16.1017 13.0259 15.972 13.0457C15.8423 13.0656 15.7224 13.1267 15.6302 13.22L13.2002 15.59C13.1069 15.6822 13.0458 15.8021 13.026 15.9318C13.0061 16.0615 13.0287 16.1941 13.0902 16.31L14.7102 19.31C14.2903 20.0606 13.9549 20.8555 13.7102 21.68L10.4002 22.68C10.2761 22.7183 10.1675 22.7952 10.0902 22.8996C10.0128 23.0039 9.97082 23.1301 9.97021 23.26V26.64C9.97082 26.7699 10.0128 26.8961 10.0902 27.0005C10.1675 27.1048 10.2761 27.1817 10.4002 27.22L13.7302 28.22C13.9776 29.0308 14.3129 29.8121 14.7302 30.55L13.0902 33.69C13.0287 33.8059 13.0061 33.9385 13.026 34.0682C13.0458 34.1979 13.1069 34.3178 13.2002 34.41L15.5902 36.8C15.6824 36.8933 15.8023 36.9544 15.932 36.9743C16.0617 36.9941 16.1943 36.9715 16.3102 36.91L19.4002 35.26C20.1312 35.6544 20.9022 35.9696 21.7002 36.2L22.7002 39.57C22.7385 39.6941 22.8154 39.8027 22.9198 39.88C23.0241 39.9574 23.1504 39.9994 23.2802 40H26.6602C26.7901 39.9994 26.9163 39.9574 27.0207 39.88C27.125 39.8027 27.2019 39.6941 27.2402 39.57L28.2402 36.19C29.0314 35.9584 29.7957 35.6433 30.5202 35.25L33.6302 36.91C33.7461 36.9715 33.8787 36.9941 34.0084 36.9743C34.1381 36.9544 34.258 36.8933 34.3502 36.8L36.7402 34.41C36.8335 34.3178 36.8947 34.1979 36.9145 34.0682C36.9343 33.9385 36.9118 33.8059 36.8502 33.69L35.1902 30.59C35.5876 29.8627 35.906 29.095 36.1402 28.3L39.5102 27.3C39.6343 27.2617 39.7429 27.1848 39.8202 27.0805C39.8976 26.9761 39.9396 26.8499 39.9402 26.72V23.31C39.9461 23.1857 39.9138 23.0625 39.8477 22.957C39.7815 22.8515 39.6847 22.7688 39.5702 22.72ZM25.0002 30.5C23.9124 30.5 22.849 30.1774 21.9446 29.5731C21.0401 28.9687 20.3352 28.1098 19.9189 27.1048C19.5026 26.0998 19.3937 24.9939 19.6059 23.927C19.8181 22.8601 20.3419 21.8801 21.1111 21.1109C21.8803 20.3417 22.8603 19.8179 23.9272 19.6057C24.9941 19.3935 26.1 19.5024 27.105 19.9187C28.11 20.3349 28.969 21.0399 29.5733 21.9444C30.1776 22.8488 30.5002 23.9122 30.5002 25C30.5002 26.4587 29.9208 27.8576 28.8893 28.8891C27.8579 29.9205 26.4589 30.5 25.0002 30.5Z" fill="black"/>
</svg>
