<svg width="24" height="24" viewBox="0 0 24 24" fill="none" xmlns="http://www.w3.org/2000/svg">
<path d="M12 3C16.9706 3 21 7.02944 21 12C21 16.9706 16.9706 21 12 21C7.02944 21 3 16.9706 3 12C3 7.02944 7.02944 3 12 3Z" stroke="#737373" stroke-width="2" stroke-linecap="round"/>
<path d="M8 14C8.5 15.5 9.79086 17 12 17C14.2091 17 15.5 15.5 16 14" stroke="#737373" stroke-width="2" stroke-linecap="round"/>
<path d="M9 11C9.55228 11 10 10.3284 10 9.5C10 8.67157 9.55228 8 9 8C8.44772 8 8 8.67157 8 9.5C8 10.3284 8.44772 11 9 11Z" fill="#737373"/>
<path d="M15 11C15.5523 11 16 10.3284 16 9.5C16 8.67157 15.5523 8 15 8C14.4477 8 14 8.67157 14 9.5C14 10.3284 14.4477 11 15 11Z" fill="#737373"/>
</svg>
