<svg width="26" height="26" viewBox="0 0 26 26" fill="none" xmlns="http://www.w3.org/2000/svg">
<path d="M13.3576 2.58691C7.63029 2.58691 2.94434 7.27482 2.94434 13.0486C2.94434 18.269 6.75557 22.6019 11.7331 23.3849V16.0764H9.08814V13.0486H11.7331V10.7412C11.7331 8.12052 13.2847 6.6797 15.6693 6.6797C16.8043 6.6797 17.9914 6.87807 17.9914 6.87807V9.45694H16.6794C15.3881 9.45694 14.982 10.2609 14.982 11.0857V13.0486H17.8769L17.4083 16.0764H14.982V23.3849C17.4358 22.9964 19.6703 21.741 21.2819 19.8456C22.8936 17.9501 23.7764 15.5394 23.7708 13.0486C23.7708 7.27482 19.0848 2.58691 13.3576 2.58691Z" fill="black"/>
</svg>
