<svg width="22" height="21" viewBox="0 0 22 21" fill="none" xmlns="http://www.w3.org/2000/svg">
<path d="M20.4202 6.27383C20.3143 5.85932 20.1509 5.46171 19.9346 5.09258C19.7269 4.70858 19.4613 4.35885 19.1471 4.0557C18.6916 3.60175 18.1522 3.24068 17.559 2.99258C16.3648 2.50247 15.0256 2.50247 13.8315 2.99258C13.2707 3.22993 12.7555 3.56302 12.309 3.97695L12.2433 4.0557L11.3902 4.90883L10.5371 4.0557L10.4715 3.97695C10.0249 3.56302 9.50972 3.22993 8.94897 2.99258C7.7548 2.50247 6.41564 2.50247 5.22147 2.99258C4.6282 3.24068 4.08882 3.60175 3.63335 4.0557C3.01039 4.66185 2.5694 5.43018 2.36022 6.27383C2.24894 6.70225 2.19596 7.14373 2.20272 7.58633C2.20272 8.00239 2.25522 8.41714 2.36022 8.82008C2.47025 9.22701 2.6289 9.61921 2.83272 9.9882C3.05285 10.3675 3.32204 10.7162 3.63335 11.0251L11.3902 18.782L19.1471 11.0251C19.4582 10.7193 19.7246 10.3688 19.9346 9.9882C20.3609 9.2599 20.583 8.43019 20.5777 7.58633C20.5845 7.14373 20.5315 6.70224 20.4202 6.27383ZM19.1077 8.4132C18.9505 9.01291 18.6382 9.56065 18.2021 10.0013L11.364 16.8263L4.52585 10.0013C4.30301 9.77691 4.10902 9.5256 3.94835 9.2532C3.79716 8.98372 3.67821 8.69737 3.59397 8.40008C3.52672 8.10282 3.49152 7.79921 3.48897 7.49445C3.49075 7.18098 3.52595 6.86859 3.59397 6.56258C3.67574 6.26443 3.79481 5.97779 3.94835 5.70945C4.10585 5.43383 4.3001 5.18445 4.52585 4.96133C4.86302 4.62866 5.25914 4.36162 5.69397 4.17383C6.57021 3.82329 7.54773 3.82329 8.42397 4.17383C8.8571 4.35364 9.24822 4.61745 9.57897 4.9482L11.364 6.74633L13.149 4.9482C13.4795 4.61686 13.8719 4.35375 14.304 4.17383C15.1802 3.82329 16.1577 3.82329 17.034 4.17383C17.4684 4.36151 17.8648 4.62926 18.2021 4.96133C18.4305 5.17789 18.6221 5.42989 18.7665 5.70945C19.0705 6.24556 19.2288 6.85191 19.2258 7.4682C19.2437 7.78533 19.2172 8.1034 19.1471 8.4132H19.1077Z" fill="#F89800"/>
</svg>
